<svg width="22" height="22" viewBox="0 0 22 22" fill="none" xmlns="http://www.w3.org/2000/svg">
<path fill-rule="evenodd" clip-rule="evenodd" d="M17.9826 12.1212C17.4444 15.4919 14.5216 18.0714 11 18.0714C7.09736 18.0714 3.92857 14.9026 3.92857 11C3.92857 7.47843 6.50807 4.55557 9.87879 4.01736C10.2441 3.95921 10.6181 3.92857 11 3.92857C14.9026 3.92857 18.0714 7.09736 18.0714 11C18.0714 11.3819 18.0408 11.7559 17.9826 12.1212ZM10.2143 0.785714C10.2143 0.352 10.5663 0 11 0C11.4337 0 11.7857 0.352 11.7857 0.785714V2.35714C11.7857 2.79086 11.4337 3.14286 11 3.14286C10.5663 3.14286 10.2143 2.79086 10.2143 2.35714V0.785714ZM17.6668 3.22221C17.974 2.915 18.4714 2.915 18.7778 3.22221C19.085 3.52864 19.085 4.026 18.7778 4.33321L17.6668 5.44421C17.3604 5.75064 16.8622 5.75064 16.5558 5.44421C16.2494 5.13779 16.2494 4.63964 16.5558 4.33321L17.6668 3.22221ZM21.2143 10.2143C21.648 10.2143 22 10.5663 22 11C22 11.4337 21.648 11.7857 21.2143 11.7857H19.6429C19.2091 11.7857 18.8571 11.4337 18.8571 11C18.8571 10.5663 19.2091 10.2143 19.6429 10.2143H21.2143ZM18.7778 17.6668C19.085 17.974 19.085 18.4714 18.7778 18.7778C18.4714 19.085 17.974 19.085 17.6668 18.7778L16.5558 17.6668C16.2494 17.3604 16.2494 16.8622 16.5558 16.5558C16.8622 16.2494 17.3604 16.2494 17.6668 16.5558L18.7778 17.6668ZM11.7857 21.2143C11.7857 21.648 11.4337 22 11 22C10.5663 22 10.2143 21.648 10.2143 21.2143V19.6429C10.2143 19.2091 10.5663 18.8571 11 18.8571C11.4337 18.8571 11.7857 19.2091 11.7857 19.6429V21.2143ZM4.33321 18.7778C4.026 19.085 3.52864 19.085 3.22221 18.7778C2.915 18.4714 2.915 17.974 3.22221 17.6668L4.33321 16.5558C4.63964 16.2494 5.13779 16.2494 5.44421 16.5558C5.75064 16.8622 5.75064 17.3604 5.44421 17.6668L4.33321 18.7778ZM0.785714 11.7857C0.352 11.7857 0 11.4337 0 11C0 10.5663 0.352 10.2143 0.785714 10.2143H2.35714C2.79086 10.2143 3.14286 10.5663 3.14286 11C3.14286 11.4337 2.79086 11.7857 2.35714 11.7857H0.785714ZM3.22221 4.33321C2.915 4.026 2.915 3.52864 3.22221 3.22221C3.52864 2.915 4.026 2.915 4.33321 3.22221L5.44421 4.33321C5.75064 4.63964 5.75064 5.13779 5.44421 5.44421C5.13779 5.75064 4.63964 5.75064 4.33321 5.44421L3.22221 4.33321Z" fill="black"/>
</svg>
