<svg width="134" height="116" viewBox="0 0 134 116" fill="none" xmlns="http://www.w3.org/2000/svg">
<g clip-path="url(#clip0_17_9996)">
<mask id="mask0_17_9996" style="mask-type:luminance" maskUnits="userSpaceOnUse" x="1" y="0" width="133" height="116">
<path d="M1.86718 116L1.86719 0L133.731 1.32151e-05L133.731 116L1.86718 116Z" fill="white"/>
</mask>
<g mask="url(#mask0_17_9996)">
<path d="M94.3105 115.947C95.5543 115.749 96.3921 114.664 97.361 113.924C104.156 108.027 111.226 102.447 118.57 97.2638C118.858 97.0522 119.159 96.8539 119.46 96.6555C118.963 96.3779 118.479 96.1134 117.981 95.8225C115.088 96.2457 112.181 96.6688 109.288 97.1051C97.1383 98.9827 84.9757 100.953 72.6954 101.535C47.0218 103.505 15.7971 95.3333 5.44121 68.9282C-0.358589 53.2068 0.767335 34.5499 9.85326 20.3096C15.2734 11.6357 22.4871 3.4244 32.3325 -0.000114078C24.5032 5.34169 19.5284 14.2932 16.7659 21.7375C11.3458 35.5813 12.0658 45.2733 15.5091 57.504C21.0732 75.6452 37.5037 85.39 64.0807 89.4229C73.6904 90.9435 96.2482 91.8294 114.04 93.416C103.082 86.3288 93.368 76.6237 90.54 63.5996C99.3116 76.5707 112.194 81.701 126.268 89.0792C130.222 91.1683 135.629 92.7813 133.05 98.467C132.33 99.7364 131.021 100.503 129.764 101.164C126.609 102.857 123.375 104.404 120.141 105.924C113.202 109.124 106.159 112.113 99.0105 114.81C97.5181 115.259 95.8424 116.291 94.3105 115.96L94.3105 115.947Z" fill="#191D24"/>
</g>
</g>
<defs>
<clipPath id="clip0_17_9996">
<rect width="116" height="134" fill="white" transform="translate(0 116) rotate(-90)"/>
</clipPath>
</defs>
</svg>
