<svg width="30" height="30" viewBox="0 0 30 30" fill="none" xmlns="http://www.w3.org/2000/svg">
<g clip-path="url(#clip0_17_9398)">
<path d="M15 2.5C21.9037 2.5 27.5 8.09625 27.5 15C27.5 21.9037 21.9037 27.5 15 27.5C8.09625 27.5 2.5 21.9037 2.5 15C2.5 8.09625 8.09625 2.5 15 2.5ZM15 5C9.4775 5 5 9.4775 5 15C5 20.5225 9.4775 25 15 25C20.5225 25 25 20.5225 25 15C25 9.4775 20.5225 5 15 5ZM15 6.25C16.2725 6.25 17.4812 6.52125 18.5725 7.01L16.6187 8.9625C16.1025 8.825 15.56 8.75 15 8.75C11.5487 8.75 8.75 11.5487 8.75 15C8.75 16.725 9.45 18.2875 10.58 19.42L8.8125 21.1875L8.6175 20.9862C7.15 19.4212 6.25 17.315 6.25 15C6.25 10.1675 10.1675 6.25 15 6.25ZM22.99 11.4287C23.4775 12.5187 23.75 13.7288 23.75 15C23.75 17.4163 22.77 19.6038 21.1875 21.1875L19.42 19.42C20.55 18.2875 21.25 16.725 21.25 15C21.25 14.44 21.1763 13.8975 21.0375 13.3813L22.99 11.4287ZM20.3025 7.92875L22.0712 9.69625L17.4162 14.3538C17.4712 14.56 17.5 14.7762 17.5 15C17.5 16.3813 16.3813 17.5 15 17.5C13.6187 17.5 12.5 16.3813 12.5 15C12.5 13.6187 13.6187 12.5 15 12.5C15.2238 12.5 15.44 12.5288 15.6462 12.5838L20.3037 7.92875H20.3025Z" fill="#3E1E84"/>
</g>
<defs>
<clipPath id="clip0_17_9398">
<rect width="30" height="30" fill="white"/>
</clipPath>
</defs>
</svg>
