<svg width="30" height="30" viewBox="0 0 30 30" fill="none" xmlns="http://www.w3.org/2000/svg">
<g clip-path="url(#clip0_17_9455)">
<path d="M24.453 15.1212L26.3668 18.4374C27.5755 20.5299 26.858 23.2062 24.7668 24.4137C24.1005 24.7974 23.3468 24.9999 22.5793 24.9999H20.0005V28.1249L13.7505 23.7499L20.0005 19.3749V22.4999H22.578C22.9068 22.4999 23.2305 22.4124 23.5155 22.2487C24.413 21.7312 24.7193 20.5837 24.203 19.6874L22.288 16.3712L24.453 15.1212ZM9.13055 11.4174L9.79305 19.0174L7.08805 17.4549L5.7993 19.6874C5.6343 19.9724 5.54805 20.2962 5.54805 20.6249C5.54805 21.6599 6.3868 22.4999 7.42305 22.4999H11.2505V24.9999H7.42305C5.0068 24.9999 3.04805 23.0412 3.04805 20.6249C3.04805 19.8574 3.25055 19.1024 3.6343 18.4374L4.9218 16.2037L2.2168 14.6424L9.1293 11.4174H9.13055ZM17.188 3.71119C17.853 4.09494 18.4055 4.64744 18.7893 5.31244L20.0768 7.54369L22.7843 5.98119L22.1218 13.5824L15.2068 10.3574L17.913 8.79494L16.6243 6.56244C16.4593 6.27744 16.223 6.04119 15.938 5.87619C15.0418 5.35869 13.8943 5.66619 13.3768 6.56244L11.4618 9.87869L9.2968 8.62869L11.213 5.31244C12.4205 3.21994 15.0968 2.50244 17.1893 3.71119H17.188Z" fill="#3E1E84"/>
</g>
<defs>
<clipPath id="clip0_17_9455">
<rect width="30" height="30" fill="white"/>
</clipPath>
</defs>
</svg>
