<svg width="30" height="30" viewBox="0 0 30 30" fill="none" xmlns="http://www.w3.org/2000/svg">
<g clip-path="url(#clip0_17_9483)">
<path d="M15 8.74978C17.6522 8.74978 20.1957 9.80335 22.0711 11.6787C23.9464 13.5541 25 16.0976 25 18.7498C25 21.402 23.9464 23.9455 22.0711 25.8209C20.1957 27.6962 17.6522 28.7498 15 28.7498C12.3478 28.7498 9.8043 27.6962 7.92893 25.8209C6.05357 23.9455 5 21.402 5 18.7498C5 16.0976 6.05357 13.5541 7.92893 11.6787C9.8043 9.80335 12.3478 8.74978 15 8.74978ZM15 11.2498C13.0109 11.2498 11.1032 12.04 9.6967 13.4465C8.29018 14.853 7.5 16.7607 7.5 18.7498C7.5 20.7389 8.29018 22.6466 9.6967 24.0531C11.1032 25.4596 13.0109 26.2498 15 26.2498C16.9891 26.2498 18.8968 25.4596 20.3033 24.0531C21.7098 22.6466 22.5 20.7389 22.5 18.7498C22.5 16.7607 21.7098 14.853 20.3033 13.4465C18.8968 12.04 16.9891 11.2498 15 11.2498ZM15 13.1248L16.6537 16.4748L20.35 17.0123L17.675 19.6185L18.3063 23.301L15 21.5623L11.6937 23.2998L12.325 19.6185L9.65 17.011L13.3463 16.4735L15 13.1248ZM22.5 2.49979V6.24978L20.7962 7.67229C19.3824 6.93051 17.8388 6.46833 16.25 6.31103V2.49979H22.5ZM13.75 2.49854V6.31103C12.1617 6.46809 10.6185 6.92985 9.205 7.67104L7.5 6.24978V2.49979L13.75 2.49854Z" fill="#3E1E84"/>
</g>
<defs>
<clipPath id="clip0_17_9483">
<rect width="30" height="30" fill="white"/>
</clipPath>
</defs>
</svg>
