<svg width="69" height="60" viewBox="0 0 69 60" fill="none" xmlns="http://www.w3.org/2000/svg">
<g clip-path="url(#clip0_15_19971)">
<mask id="mask0_15_19971" style="mask-type:luminance" maskUnits="userSpaceOnUse" x="0" y="0" width="69" height="60">
<path d="M0.0244114 60L0.0244141 0L68.9085 3.01102e-06L68.9085 60L0.0244114 60Z" fill="white"/>
</mask>
<g mask="url(#mask0_15_19971)">
<path d="M48.3154 59.9726C48.9651 59.8701 49.4028 59.3092 49.9089 58.9262C53.4585 55.876 57.1516 52.9898 60.9884 50.3089C61.1389 50.1995 61.2962 50.0969 61.4535 49.9943C61.1936 49.8507 60.9405 49.7139 60.6806 49.5634C59.1692 49.7823 57.6509 50.0011 56.1394 50.2268C49.7927 51.198 43.4391 52.217 37.024 52.5179C23.6124 53.537 7.3009 49.3104 1.8912 35.6526C-1.1386 27.5208 -0.550393 17.8707 4.19601 10.505C7.0274 6.01847 10.7958 1.77134 15.9388 -2.31515e-06C11.849 2.76302 9.25011 7.39314 7.80701 11.2436C4.97561 18.4042 5.35181 23.4173 7.15051 29.7435C10.0571 39.1269 18.6403 44.1673 32.5238 46.2533C37.5437 47.0398 49.3276 47.498 58.622 48.3187C52.8977 44.6529 47.823 39.633 46.3457 32.8964C50.928 39.6056 57.6577 42.2592 65.0098 46.0755C67.0753 47.156 69.8998 47.9904 68.5525 50.9313C68.1764 51.5878 67.4924 51.9845 66.8359 52.3265C65.1876 53.2019 63.4984 54.002 61.8091 54.7886C58.1843 56.4436 54.5049 57.9893 50.7707 59.3845C49.991 59.617 49.1156 60.1505 48.3154 59.9795L48.3154 59.9726Z" fill="#7E55D8"/>
</g>
</g>
<defs>
<clipPath id="clip0_15_19971">
<rect width="60" height="69" fill="white" transform="translate(69) rotate(90)"/>
</clipPath>
</defs>
</svg>
