<svg width="69" height="60" viewBox="0 0 69 60" fill="none" xmlns="http://www.w3.org/2000/svg">
<g clip-path="url(#clip0_15_19977)">
<mask id="mask0_15_19977" style="mask-type:luminance" maskUnits="userSpaceOnUse" x="0" y="0" width="69" height="60">
<path d="M68.9756 60L68.9756 0L0.0914841 3.01102e-06L0.0914867 60L68.9756 60Z" fill="white"/>
</mask>
<g mask="url(#mask0_15_19977)">
<path d="M20.6846 59.9726C20.0349 59.8701 19.5972 59.3092 19.0911 58.9262C15.5415 55.876 11.8484 52.9898 8.0116 50.3089C7.86114 50.1995 7.70384 50.0969 7.54654 49.9943C7.80642 49.8507 8.05947 49.7139 8.31936 49.5634C9.83082 49.7823 11.3491 50.0011 12.8606 50.2268C19.2073 51.198 25.5609 52.217 31.976 52.5179C45.3876 53.537 61.6991 49.3104 67.1088 35.6526C70.1386 27.5208 69.5504 17.8707 64.804 10.505C61.9726 6.01847 58.2042 1.77134 53.0612 -2.31515e-06C57.151 2.76302 59.7499 7.39314 61.193 11.2436C64.0244 18.4042 63.6482 23.4173 61.8495 29.7435C58.9429 39.1269 50.3597 44.1673 36.4762 46.2533C31.4563 47.0398 19.6724 47.498 10.378 48.3187C16.1023 44.6529 21.177 39.633 22.6543 32.8964C18.072 39.6056 11.3423 42.2592 3.99017 46.0755C1.92474 47.156 -0.899827 47.9904 0.447489 50.9313C0.823643 51.5878 1.50755 51.9845 2.16411 52.3265C3.81235 53.2019 5.50163 54.002 7.1909 54.7886C10.8157 56.4436 14.4951 57.9893 18.2293 59.3845C19.009 59.617 19.8844 60.1505 20.6846 59.9795L20.6846 59.9726Z" fill="#7E55D8"/>
</g>
</g>
<defs>
<clipPath id="clip0_15_19977">
<rect width="60" height="69" fill="white" transform="matrix(4.37114e-08 1 1 -4.37114e-08 0 0)"/>
</clipPath>
</defs>
</svg>
