<svg width="20" height="20" viewBox="0 0 20 20" fill="none" xmlns="http://www.w3.org/2000/svg">
<path d="M1.66602 12.0832L9.70121 16.1008C9.81053 16.1555 9.86518 16.1828 9.92252 16.1936C9.9733 16.2031 10.0254 16.2031 10.0762 16.1936C10.1335 16.1828 10.1882 16.1555 10.2975 16.1008L18.3327 12.0832M1.66602 7.91656L9.70121 3.89896C9.81053 3.8443 9.86518 3.81697 9.92252 3.80622C9.9733 3.79669 10.0254 3.79669 10.0762 3.80622C10.1335 3.81697 10.1882 3.8443 10.2975 3.89896L18.3327 7.91656L10.2975 11.9342C10.1882 11.9888 10.1335 12.0161 10.0762 12.0269C10.0254 12.0364 9.9733 12.0364 9.92252 12.0269C9.86518 12.0161 9.81053 11.9888 9.70121 11.9342L1.66602 7.91656Z" stroke="#7F56D9" stroke-width="1.66667" stroke-linecap="round" stroke-linejoin="round"/>
</svg>
