<svg width="294" height="402" viewBox="0 0 294 402" fill="none" xmlns="http://www.w3.org/2000/svg">
<g opacity="0.3">
<line y1="-1" x2="12.2744" y2="-1" transform="matrix(-0.342413 -0.939549 -0.939835 0.341627 92.5605 12.874)" stroke="#9E77ED" stroke-width="2"/>
<line y1="-1" x2="12.2765" y2="-1" transform="matrix(-0.500488 -0.865743 -0.866307 0.499512 66.3672 12.4912)" stroke="#9E77ED" stroke-width="2"/>
<line y1="-1" x2="12.2791" y2="-1" transform="matrix(-0.643278 -0.765632 -0.766456 0.642297 40.0332 12.1074)" stroke="#9E77ED" stroke-width="2"/>
<line y1="-1" x2="12.2819" y2="-1" transform="matrix(-0.766456 -0.642297 -0.643278 0.765632 13.5234 11.3403)" stroke="#9E77ED" stroke-width="2"/>
<line y1="-1" x2="12.2819" y2="-1" transform="matrix(0.766456 -0.642297 -0.643278 -0.765632 275.895 11.3403)" stroke="#9E77ED" stroke-width="2"/>
<line y1="-1" x2="12.2791" y2="-1" transform="matrix(0.643278 -0.765632 -0.766456 -0.642297 249.381 12.1074)" stroke="#9E77ED" stroke-width="2"/>
<line y1="-1" x2="12.2765" y2="-1" transform="matrix(0.500488 -0.865743 -0.866307 -0.499512 223.047 12.4912)" stroke="#9E77ED" stroke-width="2"/>
<line y1="-1" x2="12.2744" y2="-1" transform="matrix(0.342413 -0.939549 -0.939835 -0.341627 196.854 12.874)" stroke="#9E77ED" stroke-width="2"/>
<line y1="-1" x2="12.273" y2="-1" transform="matrix(0.173867 -0.984769 -0.984846 -0.173429 170.756 13.2583)" stroke="#9E77ED" stroke-width="2"/>
<line y1="-1" x2="12.2725" y2="-1" transform="matrix(0 -1 -1 0 144.707 13.2583)" stroke="#9E77ED" stroke-width="2"/>
<line y1="-1" x2="12.273" y2="-1" transform="matrix(-0.173867 -0.984769 -0.984846 0.173429 118.658 13.2583)" stroke="#9E77ED" stroke-width="2"/>
<line y1="-1" x2="12.2744" y2="-1" transform="matrix(-0.342413 -0.939549 -0.939835 0.341627 120.209 34.3516)" stroke="#9E77ED" stroke-width="2"/>
<line y1="-1" x2="12.2765" y2="-1" transform="matrix(-0.500488 -0.865743 -0.866307 0.499512 94.0176 33.9678)" stroke="#9E77ED" stroke-width="2"/>
<line y1="-1" x2="12.2791" y2="-1" transform="matrix(-0.643278 -0.765632 -0.766456 0.642297 67.6855 33.5845)" stroke="#9E77ED" stroke-width="2"/>
<line y1="-1" x2="12.2819" y2="-1" transform="matrix(-0.766456 -0.642297 -0.643278 0.765632 41.1699 32.8179)" stroke="#9E77ED" stroke-width="2"/>
<line y1="-1" x2="12.2845" y2="-1" transform="matrix(-0.866307 -0.499512 -0.500488 0.865743 14.4434 31.667)" stroke="#9E77ED" stroke-width="2"/>
<line y1="-1" x2="12.2791" y2="-1" transform="matrix(0.643278 -0.765632 -0.766456 -0.642297 277.027 33.5845)" stroke="#9E77ED" stroke-width="2"/>
<line y1="-1" x2="12.2765" y2="-1" transform="matrix(0.500488 -0.865743 -0.866307 -0.499512 250.695 33.9678)" stroke="#9E77ED" stroke-width="2"/>
<line y1="-1" x2="12.2744" y2="-1" transform="matrix(0.342413 -0.939549 -0.939835 -0.341627 224.504 34.3516)" stroke="#9E77ED" stroke-width="2"/>
<line y1="-1" x2="12.273" y2="-1" transform="matrix(0.173867 -0.984769 -0.984846 -0.173429 198.406 34.7344)" stroke="#9E77ED" stroke-width="2"/>
<line y1="-1" x2="12.2725" y2="-1" transform="matrix(0 -1 -1 0 172.357 34.7344)" stroke="#9E77ED" stroke-width="2"/>
<line y1="-1" x2="12.273" y2="-1" transform="matrix(-0.173867 -0.984769 -0.984846 0.173429 146.307 34.7344)" stroke="#9E77ED" stroke-width="2"/>
<line y1="-1" x2="12.2744" y2="-1" transform="matrix(-0.342413 -0.939549 -0.939835 0.341627 147.859 55.8286)" stroke="#9E77ED" stroke-width="2"/>
<line y1="-1" x2="12.2765" y2="-1" transform="matrix(-0.500488 -0.865743 -0.866307 0.499512 121.664 55.4448)" stroke="#9E77ED" stroke-width="2"/>
<line y1="-1" x2="12.2791" y2="-1" transform="matrix(-0.643278 -0.765632 -0.766456 0.642297 95.332 55.061)" stroke="#9E77ED" stroke-width="2"/>
<line y1="-1" x2="12.2819" y2="-1" transform="matrix(-0.766456 -0.642297 -0.643278 0.765632 68.8184 54.2939)" stroke="#9E77ED" stroke-width="2"/>
<line y1="-1" x2="12.2845" y2="-1" transform="matrix(-0.866307 -0.499512 -0.500488 0.865743 42.0918 53.1436)" stroke="#9E77ED" stroke-width="2"/>
<line y1="-1" x2="12.2866" y2="-1" transform="matrix(-0.939835 -0.341627 -0.342413 0.939549 15.123 52.3765)" stroke="#9E77ED" stroke-width="2"/>
<line y1="-1" x2="12.2765" y2="-1" transform="matrix(0.500488 -0.865743 -0.866307 -0.499512 278.346 55.4448)" stroke="#9E77ED" stroke-width="2"/>
<line y1="-1" x2="12.2744" y2="-1" transform="matrix(0.342413 -0.939549 -0.939835 -0.341627 252.152 55.8286)" stroke="#9E77ED" stroke-width="2"/>
<line y1="-1" x2="12.273" y2="-1" transform="matrix(0.173867 -0.984769 -0.984846 -0.173429 226.053 56.2119)" stroke="#9E77ED" stroke-width="2"/>
<line y1="-1" x2="12.2725" y2="-1" transform="matrix(0 -1 -1 0 200.006 56.2119)" stroke="#9E77ED" stroke-width="2"/>
<line y1="-1" x2="12.273" y2="-1" transform="matrix(-0.173867 -0.984769 -0.984846 0.173429 173.957 56.2119)" stroke="#9E77ED" stroke-width="2"/>
<line y1="-1" x2="12.2744" y2="-1" transform="matrix(-0.342413 -0.939549 -0.939835 0.341627 175.506 77.3052)" stroke="#9E77ED" stroke-width="2"/>
<line y1="-1" x2="12.2765" y2="-1" transform="matrix(-0.500488 -0.865743 -0.866307 0.499512 149.316 76.9224)" stroke="#9E77ED" stroke-width="2"/>
<line y1="-1" x2="12.2791" y2="-1" transform="matrix(-0.643278 -0.765632 -0.766456 0.642297 122.982 76.5381)" stroke="#9E77ED" stroke-width="2"/>
<line y1="-1" x2="12.2819" y2="-1" transform="matrix(-0.766456 -0.642297 -0.643278 0.765632 96.4688 75.7715)" stroke="#9E77ED" stroke-width="2"/>
<line y1="-1" x2="12.2845" y2="-1" transform="matrix(-0.866307 -0.499512 -0.500488 0.865743 69.7383 74.6206)" stroke="#9E77ED" stroke-width="2"/>
<line y1="-1" x2="12.2866" y2="-1" transform="matrix(-0.939835 -0.341627 -0.342413 0.939549 42.7695 73.8535)" stroke="#9E77ED" stroke-width="2"/>
<line y1="-1" x2="12.288" y2="-1" transform="matrix(-0.984846 -0.173429 -0.173867 0.984769 15.5352 72.7031)" stroke="#9E77ED" stroke-width="2"/>
<line y1="-1" x2="12.2744" y2="-1" transform="matrix(0.342413 -0.939549 -0.939835 -0.341627 279.803 77.3052)" stroke="#9E77ED" stroke-width="2"/>
<line y1="-1" x2="12.273" y2="-1" transform="matrix(0.173867 -0.984769 -0.984846 -0.173429 253.705 77.689)" stroke="#9E77ED" stroke-width="2"/>
<line y1="-1" x2="12.2725" y2="-1" transform="matrix(0 -1 -1 0 227.656 77.689)" stroke="#9E77ED" stroke-width="2"/>
<line y1="-1" x2="12.273" y2="-1" transform="matrix(-0.173867 -0.984769 -0.984846 0.173429 201.605 77.689)" stroke="#9E77ED" stroke-width="2"/>
<line y1="-1" x2="12.2744" y2="-1" transform="matrix(-0.342413 -0.939549 -0.939835 0.341627 203.158 98.7822)" stroke="#9E77ED" stroke-width="2"/>
<line y1="-1" x2="12.2765" y2="-1" transform="matrix(-0.500488 -0.865743 -0.866307 0.499512 176.963 98.3984)" stroke="#9E77ED" stroke-width="2"/>
<line y1="-1" x2="12.2791" y2="-1" transform="matrix(-0.643278 -0.765632 -0.766456 0.642297 150.631 98.0156)" stroke="#9E77ED" stroke-width="2"/>
<line y1="-1" x2="12.2819" y2="-1" transform="matrix(-0.766456 -0.642297 -0.643278 0.765632 124.115 97.2476)" stroke="#9E77ED" stroke-width="2"/>
<line y1="-1" x2="12.2845" y2="-1" transform="matrix(-0.866307 -0.499512 -0.500488 0.865743 97.3906 96.0981)" stroke="#9E77ED" stroke-width="2"/>
<line y1="-1" x2="12.2866" y2="-1" transform="matrix(-0.939835 -0.341627 -0.342413 0.939549 70.4199 95.3301)" stroke="#9E77ED" stroke-width="2"/>
<line y1="-1" x2="12.288" y2="-1" transform="matrix(-0.984846 -0.173429 -0.173867 0.984769 43.1855 94.1802)" stroke="#9E77ED" stroke-width="2"/>
<line y1="-1" x2="12.273" y2="-1" transform="matrix(0.173867 -0.984769 -0.984846 -0.173429 281.352 99.1655)" stroke="#9E77ED" stroke-width="2"/>
<line y1="-1" x2="12.2725" y2="-1" transform="matrix(0 -1 -1 0 255.305 99.1655)" stroke="#9E77ED" stroke-width="2"/>
<line y1="-1" x2="12.273" y2="-1" transform="matrix(-0.173867 -0.984769 -0.984846 0.173429 229.256 99.1655)" stroke="#9E77ED" stroke-width="2"/>
<line y1="-1" x2="12.2885" y2="-1" transform="matrix(1 0 0 -1 0.316406 93.0293)" stroke="#9E77ED" stroke-width="2"/>
<line y1="-1" x2="12.2744" y2="-1" transform="matrix(-0.342413 -0.939549 -0.939835 0.341627 230.805 120.259)" stroke="#9E77ED" stroke-width="2"/>
<line y1="-1" x2="12.2765" y2="-1" transform="matrix(-0.500488 -0.865743 -0.866307 0.499512 204.615 119.876)" stroke="#9E77ED" stroke-width="2"/>
<line y1="-1" x2="12.2791" y2="-1" transform="matrix(-0.643278 -0.765632 -0.766456 0.642297 178.281 119.492)" stroke="#9E77ED" stroke-width="2"/>
<line y1="-1" x2="12.2819" y2="-1" transform="matrix(-0.766456 -0.642297 -0.643278 0.765632 151.768 118.725)" stroke="#9E77ED" stroke-width="2"/>
<line y1="-1" x2="12.2845" y2="-1" transform="matrix(-0.866307 -0.499512 -0.500488 0.865743 125.037 117.574)" stroke="#9E77ED" stroke-width="2"/>
<line y1="-1" x2="12.2866" y2="-1" transform="matrix(-0.939835 -0.341627 -0.342413 0.939549 98.0684 116.808)" stroke="#9E77ED" stroke-width="2"/>
<line y1="-1" x2="12.288" y2="-1" transform="matrix(-0.984846 -0.173429 -0.173867 0.984769 70.834 115.657)" stroke="#9E77ED" stroke-width="2"/>
<line y1="-1" x2="12.2725" y2="-1" transform="matrix(0 -1 -1 0 282.955 120.643)" stroke="#9E77ED" stroke-width="2"/>
<line y1="-1" x2="12.273" y2="-1" transform="matrix(-0.173867 -0.984769 -0.984846 0.173429 256.902 120.643)" stroke="#9E77ED" stroke-width="2"/>
<line y1="-1" x2="12.2885" y2="-1" transform="matrix(1 0 0 -1 27.9668 114.507)" stroke="#9E77ED" stroke-width="2"/>
<line y1="-1" x2="12.288" y2="-1" transform="matrix(0.984846 -0.173429 -0.173867 -0.984769 0.455078 115.657)" stroke="#9E77ED" stroke-width="2"/>
<line y1="-1" x2="12.2744" y2="-1" transform="matrix(-0.342413 -0.939549 -0.939835 0.341627 258.457 141.736)" stroke="#9E77ED" stroke-width="2"/>
<line y1="-1" x2="12.2765" y2="-1" transform="matrix(-0.500488 -0.865743 -0.866307 0.499512 232.262 141.352)" stroke="#9E77ED" stroke-width="2"/>
<line y1="-1" x2="12.2791" y2="-1" transform="matrix(-0.643278 -0.765632 -0.766456 0.642297 205.93 140.969)" stroke="#9E77ED" stroke-width="2"/>
<line y1="-1" x2="12.2819" y2="-1" transform="matrix(-0.766456 -0.642297 -0.643278 0.765632 179.414 140.202)" stroke="#9E77ED" stroke-width="2"/>
<line y1="-1" x2="12.2845" y2="-1" transform="matrix(-0.866307 -0.499512 -0.500488 0.865743 152.688 139.052)" stroke="#9E77ED" stroke-width="2"/>
<line y1="-1" x2="12.2866" y2="-1" transform="matrix(-0.939835 -0.341627 -0.342413 0.939549 125.719 138.285)" stroke="#9E77ED" stroke-width="2"/>
<line y1="-1" x2="12.288" y2="-1" transform="matrix(-0.984846 -0.173429 -0.173867 0.984769 98.4844 137.134)" stroke="#9E77ED" stroke-width="2"/>
<line y1="-1" x2="12.273" y2="-1" transform="matrix(-0.173867 -0.984769 -0.984846 0.173429 284.555 142.12)" stroke="#9E77ED" stroke-width="2"/>
<line y1="-1" x2="12.2885" y2="-1" transform="matrix(1 0 0 -1 55.6152 135.983)" stroke="#9E77ED" stroke-width="2"/>
<line y1="-1" x2="12.288" y2="-1" transform="matrix(0.984846 -0.173429 -0.173867 -0.984769 28.1055 137.134)" stroke="#9E77ED" stroke-width="2"/>
<line y1="-1" x2="12.2866" y2="-1" transform="matrix(0.939835 -0.341627 -0.342413 -0.939549 0.871094 138.285)" stroke="#9E77ED" stroke-width="2"/>
<line y1="-1" x2="12.2744" y2="-1" transform="matrix(-0.342413 -0.939549 -0.939835 0.341627 286.104 163.213)" stroke="#9E77ED" stroke-width="2"/>
<line y1="-1" x2="12.2765" y2="-1" transform="matrix(-0.500488 -0.865743 -0.866307 0.499512 259.912 162.83)" stroke="#9E77ED" stroke-width="2"/>
<line y1="-1" x2="12.2791" y2="-1" transform="matrix(-0.643278 -0.765632 -0.766456 0.642297 233.58 162.445)" stroke="#9E77ED" stroke-width="2"/>
<line y1="-1" x2="12.2819" y2="-1" transform="matrix(-0.766456 -0.642297 -0.643278 0.765632 207.066 161.679)" stroke="#9E77ED" stroke-width="2"/>
<line y1="-1" x2="12.2845" y2="-1" transform="matrix(-0.866307 -0.499512 -0.500488 0.865743 180.336 160.528)" stroke="#9E77ED" stroke-width="2"/>
<line y1="-1" x2="12.2866" y2="-1" transform="matrix(-0.939835 -0.341627 -0.342413 0.939549 153.367 159.761)" stroke="#9E77ED" stroke-width="2"/>
<line y1="-1" x2="12.288" y2="-1" transform="matrix(-0.984846 -0.173429 -0.173867 0.984769 126.131 158.611)" stroke="#9E77ED" stroke-width="2"/>
<line y1="-1" x2="12.2845" y2="-1" transform="matrix(0.866307 -0.499512 -0.500488 -0.865743 1.54883 160.528)" stroke="#9E77ED" stroke-width="2"/>
<line y1="-1" x2="12.2885" y2="-1" transform="matrix(1 0 0 -1 83.2617 157.46)" stroke="#9E77ED" stroke-width="2"/>
<line y1="-1" x2="12.288" y2="-1" transform="matrix(0.984846 -0.173429 -0.173867 -0.984769 55.7539 158.611)" stroke="#9E77ED" stroke-width="2"/>
<line y1="-1" x2="12.2866" y2="-1" transform="matrix(0.939835 -0.341627 -0.342413 -0.939549 28.5215 159.761)" stroke="#9E77ED" stroke-width="2"/>
<line y1="-1" x2="12.2765" y2="-1" transform="matrix(-0.500488 -0.865743 -0.866307 0.499512 287.561 184.307)" stroke="#9E77ED" stroke-width="2"/>
<line y1="-1" x2="12.2791" y2="-1" transform="matrix(-0.643278 -0.765632 -0.766456 0.642297 261.227 183.923)" stroke="#9E77ED" stroke-width="2"/>
<line y1="-1" x2="12.2819" y2="-1" transform="matrix(-0.766456 -0.642297 -0.643278 0.765632 234.713 183.156)" stroke="#9E77ED" stroke-width="2"/>
<line y1="-1" x2="12.2845" y2="-1" transform="matrix(-0.866307 -0.499512 -0.500488 0.865743 207.986 182.005)" stroke="#9E77ED" stroke-width="2"/>
<line y1="-1" x2="12.2866" y2="-1" transform="matrix(-0.939835 -0.341627 -0.342413 0.939549 181.018 181.238)" stroke="#9E77ED" stroke-width="2"/>
<line y1="-1" x2="12.288" y2="-1" transform="matrix(-0.984846 -0.173429 -0.173867 0.984769 153.783 180.087)" stroke="#9E77ED" stroke-width="2"/>
<line y1="-1" x2="12.2845" y2="-1" transform="matrix(0.866307 -0.499512 -0.500488 -0.865743 29.2012 182.005)" stroke="#9E77ED" stroke-width="2"/>
<line y1="-1" x2="12.2819" y2="-1" transform="matrix(0.766456 -0.642297 -0.643278 -0.765632 2.4707 183.156)" stroke="#9E77ED" stroke-width="2"/>
<line y1="-1" x2="12.2885" y2="-1" transform="matrix(1 0 0 -1 110.912 178.937)" stroke="#9E77ED" stroke-width="2"/>
<line y1="-1" x2="12.288" y2="-1" transform="matrix(0.984846 -0.173429 -0.173867 -0.984769 83.4043 180.087)" stroke="#9E77ED" stroke-width="2"/>
<line y1="-1" x2="12.2866" y2="-1" transform="matrix(0.939835 -0.341627 -0.342413 -0.939549 56.1699 181.238)" stroke="#9E77ED" stroke-width="2"/>
<line y1="-1" x2="12.2791" y2="-1" transform="matrix(-0.643278 -0.765632 -0.766456 0.642297 288.879 205.4)" stroke="#9E77ED" stroke-width="2"/>
<line y1="-1" x2="12.2819" y2="-1" transform="matrix(-0.766456 -0.642297 -0.643278 0.765632 262.363 204.632)" stroke="#9E77ED" stroke-width="2"/>
<line y1="-1" x2="12.2845" y2="-1" transform="matrix(-0.866307 -0.499512 -0.500488 0.865743 235.635 203.482)" stroke="#9E77ED" stroke-width="2"/>
<line y1="-1" x2="12.2866" y2="-1" transform="matrix(-0.939835 -0.341627 -0.342413 0.939549 208.664 202.716)" stroke="#9E77ED" stroke-width="2"/>
<line y1="-1" x2="12.288" y2="-1" transform="matrix(-0.984846 -0.173429 -0.173867 0.984769 181.43 201.565)" stroke="#9E77ED" stroke-width="2"/>
<line y1="-1" x2="12.2845" y2="-1" transform="matrix(0.866307 -0.499512 -0.500488 -0.865743 56.8477 203.482)" stroke="#9E77ED" stroke-width="2"/>
<line y1="-1" x2="12.2819" y2="-1" transform="matrix(0.766456 -0.642297 -0.643278 -0.765632 30.1211 204.632)" stroke="#9E77ED" stroke-width="2"/>
<line y1="-1" x2="12.2791" y2="-1" transform="matrix(0.643278 -0.765632 -0.766456 -0.642297 3.60742 205.4)" stroke="#9E77ED" stroke-width="2"/>
<line y1="-1" x2="12.2885" y2="-1" transform="matrix(1 0 0 -1 138.561 200.414)" stroke="#9E77ED" stroke-width="2"/>
<line y1="-1" x2="12.288" y2="-1" transform="matrix(0.984846 -0.173429 -0.173867 -0.984769 111.051 201.565)" stroke="#9E77ED" stroke-width="2"/>
<line y1="-1" x2="12.2866" y2="-1" transform="matrix(0.939835 -0.341627 -0.342413 -0.939549 83.8164 202.716)" stroke="#9E77ED" stroke-width="2"/>
<line y1="-1" x2="12.2819" y2="-1" transform="matrix(-0.766456 -0.642297 -0.643278 0.765632 290.012 226.109)" stroke="#9E77ED" stroke-width="2"/>
<line y1="-1" x2="12.2845" y2="-1" transform="matrix(-0.866307 -0.499512 -0.500488 0.865743 263.285 224.959)" stroke="#9E77ED" stroke-width="2"/>
<line y1="-1" x2="12.2866" y2="-1" transform="matrix(-0.939835 -0.341627 -0.342413 0.939549 236.316 224.192)" stroke="#9E77ED" stroke-width="2"/>
<line y1="-1" x2="12.288" y2="-1" transform="matrix(-0.984846 -0.173429 -0.173867 0.984769 209.082 223.041)" stroke="#9E77ED" stroke-width="2"/>
<line y1="-1" x2="12.2845" y2="-1" transform="matrix(0.866307 -0.499512 -0.500488 -0.865743 84.498 224.959)" stroke="#9E77ED" stroke-width="2"/>
<line y1="-1" x2="12.2819" y2="-1" transform="matrix(0.766456 -0.642297 -0.643278 -0.765632 57.7695 226.109)" stroke="#9E77ED" stroke-width="2"/>
<line y1="-1" x2="12.2791" y2="-1" transform="matrix(0.643278 -0.765632 -0.766456 -0.642297 31.2578 226.876)" stroke="#9E77ED" stroke-width="2"/>
<line y1="-1" x2="12.2765" y2="-1" transform="matrix(0.500488 -0.865743 -0.866307 -0.499512 4.92188 227.26)" stroke="#9E77ED" stroke-width="2"/>
<line y1="-1" x2="12.2885" y2="-1" transform="matrix(1 0 0 -1 166.211 221.891)" stroke="#9E77ED" stroke-width="2"/>
<line y1="-1" x2="12.288" y2="-1" transform="matrix(0.984846 -0.173429 -0.173867 -0.984769 138.703 223.041)" stroke="#9E77ED" stroke-width="2"/>
<line y1="-1" x2="12.2866" y2="-1" transform="matrix(0.939835 -0.341627 -0.342413 -0.939549 111.469 224.192)" stroke="#9E77ED" stroke-width="2"/>
<line y1="-1" x2="12.2845" y2="-1" transform="matrix(-0.866307 -0.499512 -0.500488 0.865743 290.932 246.436)" stroke="#9E77ED" stroke-width="2"/>
<line y1="-1" x2="12.2866" y2="-1" transform="matrix(-0.939835 -0.341627 -0.342413 0.939549 263.963 245.669)" stroke="#9E77ED" stroke-width="2"/>
<line y1="-1" x2="12.288" y2="-1" transform="matrix(-0.984846 -0.173429 -0.173867 0.984769 236.729 244.519)" stroke="#9E77ED" stroke-width="2"/>
<line y1="-1" x2="12.2845" y2="-1" transform="matrix(0.866307 -0.499512 -0.500488 -0.865743 112.146 246.436)" stroke="#9E77ED" stroke-width="2"/>
<line y1="-1" x2="12.2819" y2="-1" transform="matrix(0.766456 -0.642297 -0.643278 -0.765632 85.4199 247.587)" stroke="#9E77ED" stroke-width="2"/>
<line y1="-1" x2="12.2791" y2="-1" transform="matrix(0.643278 -0.765632 -0.766456 -0.642297 58.9062 248.354)" stroke="#9E77ED" stroke-width="2"/>
<line y1="-1" x2="12.2765" y2="-1" transform="matrix(0.500488 -0.865743 -0.866307 -0.499512 32.5723 248.737)" stroke="#9E77ED" stroke-width="2"/>
<line y1="-1" x2="12.2744" y2="-1" transform="matrix(0.342413 -0.939549 -0.939835 -0.341627 6.37891 249.121)" stroke="#9E77ED" stroke-width="2"/>
<line y1="-1" x2="12.2885" y2="-1" transform="matrix(1 0 0 -1 193.859 243.368)" stroke="#9E77ED" stroke-width="2"/>
<line y1="-1" x2="12.288" y2="-1" transform="matrix(0.984846 -0.173429 -0.173867 -0.984769 166.35 244.519)" stroke="#9E77ED" stroke-width="2"/>
<line y1="-1" x2="12.2866" y2="-1" transform="matrix(0.939835 -0.341627 -0.342413 -0.939549 139.115 245.669)" stroke="#9E77ED" stroke-width="2"/>
<line y1="-1" x2="12.2866" y2="-1" transform="matrix(-0.939835 -0.341627 -0.342413 0.939549 291.615 267.146)" stroke="#9E77ED" stroke-width="2"/>
<line y1="-1" x2="12.288" y2="-1" transform="matrix(-0.984846 -0.173429 -0.173867 0.984769 264.379 265.996)" stroke="#9E77ED" stroke-width="2"/>
<line y1="-1" x2="12.2845" y2="-1" transform="matrix(0.866307 -0.499512 -0.500488 -0.865743 139.797 267.914)" stroke="#9E77ED" stroke-width="2"/>
<line y1="-1" x2="12.2819" y2="-1" transform="matrix(0.766456 -0.642297 -0.643278 -0.765632 113.066 269.063)" stroke="#9E77ED" stroke-width="2"/>
<line y1="-1" x2="12.2791" y2="-1" transform="matrix(0.643278 -0.765632 -0.766456 -0.642297 86.5527 269.83)" stroke="#9E77ED" stroke-width="2"/>
<line y1="-1" x2="12.2765" y2="-1" transform="matrix(0.500488 -0.865743 -0.866307 -0.499512 60.2207 270.214)" stroke="#9E77ED" stroke-width="2"/>
<line y1="-1" x2="12.2744" y2="-1" transform="matrix(0.342413 -0.939549 -0.939835 -0.341627 34.0293 270.598)" stroke="#9E77ED" stroke-width="2"/>
<line y1="-1" x2="12.273" y2="-1" transform="matrix(0.173867 -0.984769 -0.984846 -0.173429 7.93164 270.981)" stroke="#9E77ED" stroke-width="2"/>
<line y1="-1" x2="12.2885" y2="-1" transform="matrix(1 0 0 -1 221.51 264.845)" stroke="#9E77ED" stroke-width="2"/>
<line y1="-1" x2="12.288" y2="-1" transform="matrix(0.984846 -0.173429 -0.173867 -0.984769 194.002 265.996)" stroke="#9E77ED" stroke-width="2"/>
<line y1="-1" x2="12.2866" y2="-1" transform="matrix(0.939835 -0.341627 -0.342413 -0.939549 166.766 267.146)" stroke="#9E77ED" stroke-width="2"/>
<line y1="-1" x2="12.288" y2="-1" transform="matrix(-0.984846 -0.173429 -0.173867 0.984769 292.027 287.472)" stroke="#9E77ED" stroke-width="2"/>
<line y1="-1" x2="12.2845" y2="-1" transform="matrix(0.866307 -0.499512 -0.500488 -0.865743 167.445 289.39)" stroke="#9E77ED" stroke-width="2"/>
<line y1="-1" x2="12.2819" y2="-1" transform="matrix(0.766456 -0.642297 -0.643278 -0.765632 140.719 290.541)" stroke="#9E77ED" stroke-width="2"/>
<line y1="-1" x2="12.2791" y2="-1" transform="matrix(0.643278 -0.765632 -0.766456 -0.642297 114.203 291.308)" stroke="#9E77ED" stroke-width="2"/>
<line y1="-1" x2="12.2765" y2="-1" transform="matrix(0.500488 -0.865743 -0.866307 -0.499512 87.8711 291.691)" stroke="#9E77ED" stroke-width="2"/>
<line y1="-1" x2="12.2744" y2="-1" transform="matrix(0.342413 -0.939549 -0.939835 -0.341627 61.6758 292.074)" stroke="#9E77ED" stroke-width="2"/>
<line y1="-1" x2="12.273" y2="-1" transform="matrix(0.173867 -0.984769 -0.984846 -0.173429 35.5781 292.458)" stroke="#9E77ED" stroke-width="2"/>
<line y1="-1" x2="12.2725" y2="-1" transform="matrix(0 -1 -1 0 9.53125 292.458)" stroke="#9E77ED" stroke-width="2"/>
<line y1="-1" x2="12.2885" y2="-1" transform="matrix(1 0 0 -1 249.156 286.321)" stroke="#9E77ED" stroke-width="2"/>
<line y1="-1" x2="12.288" y2="-1" transform="matrix(0.984846 -0.173429 -0.173867 -0.984769 221.648 287.472)" stroke="#9E77ED" stroke-width="2"/>
<line y1="-1" x2="12.2866" y2="-1" transform="matrix(0.939835 -0.341627 -0.342413 -0.939549 194.414 288.623)" stroke="#9E77ED" stroke-width="2"/>
<line y1="-1" x2="12.2845" y2="-1" transform="matrix(0.866307 -0.499512 -0.500488 -0.865743 195.096 310.867)" stroke="#9E77ED" stroke-width="2"/>
<line y1="-1" x2="12.2819" y2="-1" transform="matrix(0.766456 -0.642297 -0.643278 -0.765632 168.365 312.017)" stroke="#9E77ED" stroke-width="2"/>
<line y1="-1" x2="12.2791" y2="-1" transform="matrix(0.643278 -0.765632 -0.766456 -0.642297 141.852 312.785)" stroke="#9E77ED" stroke-width="2"/>
<line y1="-1" x2="12.2765" y2="-1" transform="matrix(0.500488 -0.865743 -0.866307 -0.499512 115.518 313.167)" stroke="#9E77ED" stroke-width="2"/>
<line y1="-1" x2="12.2744" y2="-1" transform="matrix(0.342413 -0.939549 -0.939835 -0.341627 89.3281 313.552)" stroke="#9E77ED" stroke-width="2"/>
<line y1="-1" x2="12.273" y2="-1" transform="matrix(0.173867 -0.984769 -0.984846 -0.173429 63.2305 313.935)" stroke="#9E77ED" stroke-width="2"/>
<line y1="-1" x2="12.2725" y2="-1" transform="matrix(0 -1 -1 0 37.1816 313.935)" stroke="#9E77ED" stroke-width="2"/>
<line y1="-1" x2="12.273" y2="-1" transform="matrix(-0.173867 -0.984769 -0.984846 0.173429 11.1289 313.935)" stroke="#9E77ED" stroke-width="2"/>
<line y1="-1" x2="12.2885" y2="-1" transform="matrix(1 0 0 -1 276.809 307.799)" stroke="#9E77ED" stroke-width="2"/>
<line y1="-1" x2="12.288" y2="-1" transform="matrix(0.984846 -0.173429 -0.173867 -0.984769 249.299 308.949)" stroke="#9E77ED" stroke-width="2"/>
<line y1="-1" x2="12.2866" y2="-1" transform="matrix(0.939835 -0.341627 -0.342413 -0.939549 222.064 310.1)" stroke="#9E77ED" stroke-width="2"/>
<line y1="-1" x2="12.2744" y2="-1" transform="matrix(-0.342413 -0.939549 -0.939835 0.341627 12.6836 335.028)" stroke="#9E77ED" stroke-width="2"/>
<line y1="-1" x2="12.2845" y2="-1" transform="matrix(0.866307 -0.499512 -0.500488 -0.865743 222.742 332.343)" stroke="#9E77ED" stroke-width="2"/>
<line y1="-1" x2="12.2819" y2="-1" transform="matrix(0.766456 -0.642297 -0.643278 -0.765632 196.018 333.494)" stroke="#9E77ED" stroke-width="2"/>
<line y1="-1" x2="12.2791" y2="-1" transform="matrix(0.643278 -0.765632 -0.766456 -0.642297 169.502 334.261)" stroke="#9E77ED" stroke-width="2"/>
<line y1="-1" x2="12.2765" y2="-1" transform="matrix(0.500488 -0.865743 -0.866307 -0.499512 143.17 334.645)" stroke="#9E77ED" stroke-width="2"/>
<line y1="-1" x2="12.2744" y2="-1" transform="matrix(0.342413 -0.939549 -0.939835 -0.341627 116.975 335.028)" stroke="#9E77ED" stroke-width="2"/>
<line y1="-1" x2="12.273" y2="-1" transform="matrix(0.173867 -0.984769 -0.984846 -0.173429 90.877 335.412)" stroke="#9E77ED" stroke-width="2"/>
<line y1="-1" x2="12.2725" y2="-1" transform="matrix(0 -1 -1 0 64.8281 335.412)" stroke="#9E77ED" stroke-width="2"/>
<line y1="-1" x2="12.273" y2="-1" transform="matrix(-0.173867 -0.984769 -0.984846 0.173429 38.7812 335.412)" stroke="#9E77ED" stroke-width="2"/>
<line y1="-1" x2="12.288" y2="-1" transform="matrix(0.984846 -0.173429 -0.173867 -0.984769 276.947 330.426)" stroke="#9E77ED" stroke-width="2"/>
<line y1="-1" x2="12.2866" y2="-1" transform="matrix(0.939835 -0.341627 -0.342413 -0.939549 249.713 331.577)" stroke="#9E77ED" stroke-width="2"/>
<line y1="-1" x2="12.2744" y2="-1" transform="matrix(-0.342413 -0.939549 -0.939835 0.341627 40.3301 356.505)" stroke="#9E77ED" stroke-width="2"/>
<line y1="-1" x2="12.2765" y2="-1" transform="matrix(-0.500488 -0.865743 -0.866307 0.499512 14.1406 356.121)" stroke="#9E77ED" stroke-width="2"/>
<line y1="-1" x2="12.2845" y2="-1" transform="matrix(0.866307 -0.499512 -0.500488 -0.865743 250.395 353.821)" stroke="#9E77ED" stroke-width="2"/>
<line y1="-1" x2="12.2819" y2="-1" transform="matrix(0.766456 -0.642297 -0.643278 -0.765632 223.664 354.972)" stroke="#9E77ED" stroke-width="2"/>
<line y1="-1" x2="12.2791" y2="-1" transform="matrix(0.643278 -0.765632 -0.766456 -0.642297 197.15 355.738)" stroke="#9E77ED" stroke-width="2"/>
<line y1="-1" x2="12.2765" y2="-1" transform="matrix(0.500488 -0.865743 -0.866307 -0.499512 170.816 356.121)" stroke="#9E77ED" stroke-width="2"/>
<line y1="-1" x2="12.2744" y2="-1" transform="matrix(0.342413 -0.939549 -0.939835 -0.341627 144.627 356.505)" stroke="#9E77ED" stroke-width="2"/>
<line y1="-1" x2="12.273" y2="-1" transform="matrix(0.173867 -0.984769 -0.984846 -0.173429 118.527 356.889)" stroke="#9E77ED" stroke-width="2"/>
<line y1="-1" x2="12.2725" y2="-1" transform="matrix(0 -1 -1 0 92.4805 356.889)" stroke="#9E77ED" stroke-width="2"/>
<line y1="-1" x2="12.273" y2="-1" transform="matrix(-0.173867 -0.984769 -0.984846 0.173429 66.4277 356.889)" stroke="#9E77ED" stroke-width="2"/>
<line y1="-1" x2="12.2866" y2="-1" transform="matrix(0.939835 -0.341627 -0.342413 -0.939549 277.363 353.054)" stroke="#9E77ED" stroke-width="2"/>
<line y1="-1" x2="12.2744" y2="-1" transform="matrix(-0.342413 -0.939549 -0.939835 0.341627 67.9805 377.982)" stroke="#9E77ED" stroke-width="2"/>
<line y1="-1" x2="12.2765" y2="-1" transform="matrix(-0.500488 -0.865743 -0.866307 0.499512 41.7871 377.599)" stroke="#9E77ED" stroke-width="2"/>
<line y1="-1" x2="12.2791" y2="-1" transform="matrix(-0.643278 -0.765632 -0.766456 0.642297 15.4531 377.215)" stroke="#9E77ED" stroke-width="2"/>
<line y1="-1" x2="12.2845" y2="-1" transform="matrix(0.866307 -0.499512 -0.500488 -0.865743 278.041 375.298)" stroke="#9E77ED" stroke-width="2"/>
<line y1="-1" x2="12.2819" y2="-1" transform="matrix(0.766456 -0.642297 -0.643278 -0.765632 251.314 376.448)" stroke="#9E77ED" stroke-width="2"/>
<line y1="-1" x2="12.2791" y2="-1" transform="matrix(0.643278 -0.765632 -0.766456 -0.642297 224.801 377.215)" stroke="#9E77ED" stroke-width="2"/>
<line y1="-1" x2="12.2765" y2="-1" transform="matrix(0.500488 -0.865743 -0.866307 -0.499512 198.467 377.599)" stroke="#9E77ED" stroke-width="2"/>
<line y1="-1" x2="12.2744" y2="-1" transform="matrix(0.342413 -0.939549 -0.939835 -0.341627 172.273 377.982)" stroke="#9E77ED" stroke-width="2"/>
<line y1="-1" x2="12.273" y2="-1" transform="matrix(0.173867 -0.984769 -0.984846 -0.173429 146.176 378.365)" stroke="#9E77ED" stroke-width="2"/>
<line y1="-1" x2="12.2725" y2="-1" transform="matrix(0 -1 -1 0 120.127 378.365)" stroke="#9E77ED" stroke-width="2"/>
<line y1="-1" x2="12.273" y2="-1" transform="matrix(-0.173867 -0.984769 -0.984846 0.173429 94.0801 378.365)" stroke="#9E77ED" stroke-width="2"/>
<line y1="-1" x2="12.2744" y2="-1" transform="matrix(-0.342413 -0.939549 -0.939835 0.341627 95.6289 399.459)" stroke="#9E77ED" stroke-width="2"/>
<line y1="-1" x2="12.2765" y2="-1" transform="matrix(-0.500488 -0.865743 -0.866307 0.499512 69.4375 399.076)" stroke="#9E77ED" stroke-width="2"/>
<line y1="-1" x2="12.2791" y2="-1" transform="matrix(-0.643278 -0.765632 -0.766456 0.642297 43.1055 398.692)" stroke="#9E77ED" stroke-width="2"/>
<line y1="-1" x2="12.2819" y2="-1" transform="matrix(-0.766456 -0.642297 -0.643278 0.765632 16.5898 397.925)" stroke="#9E77ED" stroke-width="2"/>
<line y1="-1" x2="12.2819" y2="-1" transform="matrix(0.766456 -0.642297 -0.643278 -0.765632 278.963 397.925)" stroke="#9E77ED" stroke-width="2"/>
<line y1="-1" x2="12.2791" y2="-1" transform="matrix(0.643278 -0.765632 -0.766456 -0.642297 252.447 398.692)" stroke="#9E77ED" stroke-width="2"/>
<line y1="-1" x2="12.2765" y2="-1" transform="matrix(0.500488 -0.865743 -0.866307 -0.499512 226.115 399.076)" stroke="#9E77ED" stroke-width="2"/>
<line y1="-1" x2="12.2744" y2="-1" transform="matrix(0.342413 -0.939549 -0.939835 -0.341627 199.924 399.459)" stroke="#9E77ED" stroke-width="2"/>
<line y1="-1" x2="12.273" y2="-1" transform="matrix(0.173867 -0.984769 -0.984846 -0.173429 173.826 399.843)" stroke="#9E77ED" stroke-width="2"/>
<line y1="-1" x2="12.2725" y2="-1" transform="matrix(0 -1 -1 0 147.779 399.843)" stroke="#9E77ED" stroke-width="2"/>
<line y1="-1" x2="12.273" y2="-1" transform="matrix(-0.173867 -0.984769 -0.984846 0.173429 121.727 399.843)" stroke="#9E77ED" stroke-width="2"/>
</g>
</svg>
