<svg width="294" height="402" viewBox="0 0 294 402" fill="none" xmlns="http://www.w3.org/2000/svg">
<g opacity="0.3">
<line y1="-1" x2="12.2744" y2="-1" transform="matrix(0.342413 -0.939549 0.939835 0.341627 201.439 12.874)" stroke="#9E77ED" stroke-width="2"/>
<line y1="-1" x2="12.2765" y2="-1" transform="matrix(0.500488 -0.865743 0.866307 0.499512 227.633 12.4912)" stroke="#9E77ED" stroke-width="2"/>
<line y1="-1" x2="12.2791" y2="-1" transform="matrix(0.643278 -0.765632 0.766456 0.642297 253.967 12.1074)" stroke="#9E77ED" stroke-width="2"/>
<line y1="-1" x2="12.2819" y2="-1" transform="matrix(0.766456 -0.642297 0.643278 0.765632 280.477 11.3403)" stroke="#9E77ED" stroke-width="2"/>
<line y1="-1" x2="12.2819" y2="-1" transform="matrix(-0.766456 -0.642297 0.643278 -0.765632 18.1055 11.3403)" stroke="#9E77ED" stroke-width="2"/>
<line y1="-1" x2="12.2791" y2="-1" transform="matrix(-0.643278 -0.765632 0.766456 -0.642297 44.6191 12.1074)" stroke="#9E77ED" stroke-width="2"/>
<line y1="-1" x2="12.2765" y2="-1" transform="matrix(-0.500488 -0.865743 0.866307 -0.499512 70.9531 12.4912)" stroke="#9E77ED" stroke-width="2"/>
<line y1="-1" x2="12.2744" y2="-1" transform="matrix(-0.342413 -0.939549 0.939835 -0.341627 97.1465 12.874)" stroke="#9E77ED" stroke-width="2"/>
<line y1="-1" x2="12.273" y2="-1" transform="matrix(-0.173867 -0.984769 0.984846 -0.173429 123.244 13.2583)" stroke="#9E77ED" stroke-width="2"/>
<line x1="148.293" y1="13.2583" x2="148.293" y2="0.985777" stroke="#9E77ED" stroke-width="2"/>
<line y1="-1" x2="12.273" y2="-1" transform="matrix(0.173867 -0.984769 0.984846 0.173429 175.342 13.2583)" stroke="#9E77ED" stroke-width="2"/>
<line y1="-1" x2="12.2744" y2="-1" transform="matrix(0.342413 -0.939549 0.939835 0.341627 173.791 34.3516)" stroke="#9E77ED" stroke-width="2"/>
<line y1="-1" x2="12.2765" y2="-1" transform="matrix(0.500488 -0.865743 0.866307 0.499512 199.982 33.9678)" stroke="#9E77ED" stroke-width="2"/>
<line y1="-1" x2="12.2791" y2="-1" transform="matrix(0.643278 -0.765632 0.766456 0.642297 226.314 33.5845)" stroke="#9E77ED" stroke-width="2"/>
<line y1="-1" x2="12.2819" y2="-1" transform="matrix(0.766456 -0.642297 0.643278 0.765632 252.83 32.8179)" stroke="#9E77ED" stroke-width="2"/>
<line y1="-1" x2="12.2845" y2="-1" transform="matrix(0.866307 -0.499512 0.500488 0.865743 279.557 31.667)" stroke="#9E77ED" stroke-width="2"/>
<line y1="-1" x2="12.2791" y2="-1" transform="matrix(-0.643278 -0.765632 0.766456 -0.642297 16.9727 33.5845)" stroke="#9E77ED" stroke-width="2"/>
<line y1="-1" x2="12.2765" y2="-1" transform="matrix(-0.500488 -0.865743 0.866307 -0.499512 43.3047 33.9678)" stroke="#9E77ED" stroke-width="2"/>
<line y1="-1" x2="12.2744" y2="-1" transform="matrix(-0.342413 -0.939549 0.939835 -0.341627 69.4961 34.3516)" stroke="#9E77ED" stroke-width="2"/>
<line y1="-1" x2="12.273" y2="-1" transform="matrix(-0.173867 -0.984769 0.984846 -0.173429 95.5938 34.7344)" stroke="#9E77ED" stroke-width="2"/>
<line x1="120.643" y1="34.7344" x2="120.643" y2="22.4619" stroke="#9E77ED" stroke-width="2"/>
<line y1="-1" x2="12.273" y2="-1" transform="matrix(0.173867 -0.984769 0.984846 0.173429 147.693 34.7344)" stroke="#9E77ED" stroke-width="2"/>
<line y1="-1" x2="12.2744" y2="-1" transform="matrix(0.342413 -0.939549 0.939835 0.341627 146.141 55.8286)" stroke="#9E77ED" stroke-width="2"/>
<line y1="-1" x2="12.2765" y2="-1" transform="matrix(0.500488 -0.865743 0.866307 0.499512 172.336 55.4448)" stroke="#9E77ED" stroke-width="2"/>
<line y1="-1" x2="12.2791" y2="-1" transform="matrix(0.643278 -0.765632 0.766456 0.642297 198.668 55.061)" stroke="#9E77ED" stroke-width="2"/>
<line y1="-1" x2="12.2819" y2="-1" transform="matrix(0.766456 -0.642297 0.643278 0.765632 225.182 54.2939)" stroke="#9E77ED" stroke-width="2"/>
<line y1="-1" x2="12.2845" y2="-1" transform="matrix(0.866307 -0.499512 0.500488 0.865743 251.908 53.1436)" stroke="#9E77ED" stroke-width="2"/>
<line y1="-1" x2="12.2866" y2="-1" transform="matrix(0.939835 -0.341627 0.342413 0.939549 278.877 52.3765)" stroke="#9E77ED" stroke-width="2"/>
<line y1="-1" x2="12.2765" y2="-1" transform="matrix(-0.500488 -0.865743 0.866307 -0.499512 15.6543 55.4448)" stroke="#9E77ED" stroke-width="2"/>
<line y1="-1" x2="12.2744" y2="-1" transform="matrix(-0.342413 -0.939549 0.939835 -0.341627 41.8477 55.8286)" stroke="#9E77ED" stroke-width="2"/>
<line y1="-1" x2="12.273" y2="-1" transform="matrix(-0.173867 -0.984769 0.984846 -0.173429 67.9473 56.2119)" stroke="#9E77ED" stroke-width="2"/>
<line x1="92.9941" y1="56.2119" x2="92.9941" y2="43.9394" stroke="#9E77ED" stroke-width="2"/>
<line y1="-1" x2="12.273" y2="-1" transform="matrix(0.173867 -0.984769 0.984846 0.173429 120.043 56.2119)" stroke="#9E77ED" stroke-width="2"/>
<line y1="-1" x2="12.2744" y2="-1" transform="matrix(0.342413 -0.939549 0.939835 0.341627 118.494 77.3052)" stroke="#9E77ED" stroke-width="2"/>
<line y1="-1" x2="12.2765" y2="-1" transform="matrix(0.500488 -0.865743 0.866307 0.499512 144.684 76.9224)" stroke="#9E77ED" stroke-width="2"/>
<line y1="-1" x2="12.2791" y2="-1" transform="matrix(0.643278 -0.765632 0.766456 0.642297 171.018 76.5381)" stroke="#9E77ED" stroke-width="2"/>
<line y1="-1" x2="12.2819" y2="-1" transform="matrix(0.766456 -0.642297 0.643278 0.765632 197.531 75.7715)" stroke="#9E77ED" stroke-width="2"/>
<line y1="-1" x2="12.2845" y2="-1" transform="matrix(0.866307 -0.499512 0.500488 0.865743 224.262 74.6206)" stroke="#9E77ED" stroke-width="2"/>
<line y1="-1" x2="12.2866" y2="-1" transform="matrix(0.939835 -0.341627 0.342413 0.939549 251.23 73.8535)" stroke="#9E77ED" stroke-width="2"/>
<line y1="-1" x2="12.288" y2="-1" transform="matrix(0.984846 -0.173429 0.173867 0.984769 278.465 72.7031)" stroke="#9E77ED" stroke-width="2"/>
<line y1="-1" x2="12.2744" y2="-1" transform="matrix(-0.342413 -0.939549 0.939835 -0.341627 14.1973 77.3052)" stroke="#9E77ED" stroke-width="2"/>
<line y1="-1" x2="12.273" y2="-1" transform="matrix(-0.173867 -0.984769 0.984846 -0.173429 40.2949 77.689)" stroke="#9E77ED" stroke-width="2"/>
<line x1="65.3438" y1="77.689" x2="65.3438" y2="65.4164" stroke="#9E77ED" stroke-width="2"/>
<line y1="-1" x2="12.273" y2="-1" transform="matrix(0.173867 -0.984769 0.984846 0.173429 92.3945 77.689)" stroke="#9E77ED" stroke-width="2"/>
<line y1="-1" x2="12.2744" y2="-1" transform="matrix(0.342413 -0.939549 0.939835 0.341627 90.8418 98.7822)" stroke="#9E77ED" stroke-width="2"/>
<line y1="-1" x2="12.2765" y2="-1" transform="matrix(0.500488 -0.865743 0.866307 0.499512 117.037 98.3984)" stroke="#9E77ED" stroke-width="2"/>
<line y1="-1" x2="12.2791" y2="-1" transform="matrix(0.643278 -0.765632 0.766456 0.642297 143.369 98.0156)" stroke="#9E77ED" stroke-width="2"/>
<line y1="-1" x2="12.2819" y2="-1" transform="matrix(0.766456 -0.642297 0.643278 0.765632 169.885 97.2476)" stroke="#9E77ED" stroke-width="2"/>
<line y1="-1" x2="12.2845" y2="-1" transform="matrix(0.866307 -0.499512 0.500488 0.865743 196.609 96.0981)" stroke="#9E77ED" stroke-width="2"/>
<line y1="-1" x2="12.2866" y2="-1" transform="matrix(0.939835 -0.341627 0.342413 0.939549 223.58 95.3301)" stroke="#9E77ED" stroke-width="2"/>
<line y1="-1" x2="12.288" y2="-1" transform="matrix(0.984846 -0.173429 0.173867 0.984769 250.814 94.1802)" stroke="#9E77ED" stroke-width="2"/>
<line y1="-1" x2="12.273" y2="-1" transform="matrix(-0.173867 -0.984769 0.984846 -0.173429 12.6484 99.1655)" stroke="#9E77ED" stroke-width="2"/>
<line x1="37.6953" y1="99.1655" x2="37.6953" y2="86.893" stroke="#9E77ED" stroke-width="2"/>
<line y1="-1" x2="12.273" y2="-1" transform="matrix(0.173867 -0.984769 0.984846 0.173429 64.7441 99.1655)" stroke="#9E77ED" stroke-width="2"/>
<line x1="293.684" y1="94.0293" x2="281.395" y2="94.0293" stroke="#9E77ED" stroke-width="2"/>
<line y1="-1" x2="12.2744" y2="-1" transform="matrix(0.342413 -0.939549 0.939835 0.341627 63.1953 120.259)" stroke="#9E77ED" stroke-width="2"/>
<line y1="-1" x2="12.2765" y2="-1" transform="matrix(0.500488 -0.865743 0.866307 0.499512 89.3848 119.876)" stroke="#9E77ED" stroke-width="2"/>
<line y1="-1" x2="12.2791" y2="-1" transform="matrix(0.643278 -0.765632 0.766456 0.642297 115.719 119.492)" stroke="#9E77ED" stroke-width="2"/>
<line y1="-1" x2="12.2819" y2="-1" transform="matrix(0.766456 -0.642297 0.643278 0.765632 142.232 118.725)" stroke="#9E77ED" stroke-width="2"/>
<line y1="-1" x2="12.2845" y2="-1" transform="matrix(0.866307 -0.499512 0.500488 0.865743 168.963 117.574)" stroke="#9E77ED" stroke-width="2"/>
<line y1="-1" x2="12.2866" y2="-1" transform="matrix(0.939835 -0.341627 0.342413 0.939549 195.932 116.808)" stroke="#9E77ED" stroke-width="2"/>
<line y1="-1" x2="12.288" y2="-1" transform="matrix(0.984846 -0.173429 0.173867 0.984769 223.166 115.657)" stroke="#9E77ED" stroke-width="2"/>
<line x1="10.0449" y1="120.643" x2="10.0449" y2="108.37" stroke="#9E77ED" stroke-width="2"/>
<line y1="-1" x2="12.273" y2="-1" transform="matrix(0.173867 -0.984769 0.984846 0.173429 37.0977 120.643)" stroke="#9E77ED" stroke-width="2"/>
<line x1="266.033" y1="115.507" x2="253.745" y2="115.507" stroke="#9E77ED" stroke-width="2"/>
<line y1="-1" x2="12.288" y2="-1" transform="matrix(-0.984846 -0.173429 0.173867 -0.984769 293.545 115.657)" stroke="#9E77ED" stroke-width="2"/>
<line y1="-1" x2="12.2744" y2="-1" transform="matrix(0.342413 -0.939549 0.939835 0.341627 35.543 141.736)" stroke="#9E77ED" stroke-width="2"/>
<line y1="-1" x2="12.2765" y2="-1" transform="matrix(0.500488 -0.865743 0.866307 0.499512 61.7383 141.352)" stroke="#9E77ED" stroke-width="2"/>
<line y1="-1" x2="12.2791" y2="-1" transform="matrix(0.643278 -0.765632 0.766456 0.642297 88.0703 140.969)" stroke="#9E77ED" stroke-width="2"/>
<line y1="-1" x2="12.2819" y2="-1" transform="matrix(0.766456 -0.642297 0.643278 0.765632 114.586 140.202)" stroke="#9E77ED" stroke-width="2"/>
<line y1="-1" x2="12.2845" y2="-1" transform="matrix(0.866307 -0.499512 0.500488 0.865743 141.312 139.052)" stroke="#9E77ED" stroke-width="2"/>
<line y1="-1" x2="12.2866" y2="-1" transform="matrix(0.939835 -0.341627 0.342413 0.939549 168.281 138.285)" stroke="#9E77ED" stroke-width="2"/>
<line y1="-1" x2="12.288" y2="-1" transform="matrix(0.984846 -0.173429 0.173867 0.984769 195.516 137.134)" stroke="#9E77ED" stroke-width="2"/>
<line y1="-1" x2="12.273" y2="-1" transform="matrix(0.173867 -0.984769 0.984846 0.173429 9.44531 142.12)" stroke="#9E77ED" stroke-width="2"/>
<line x1="238.385" y1="136.983" x2="226.096" y2="136.983" stroke="#9E77ED" stroke-width="2"/>
<line y1="-1" x2="12.288" y2="-1" transform="matrix(-0.984846 -0.173429 0.173867 -0.984769 265.895 137.134)" stroke="#9E77ED" stroke-width="2"/>
<line y1="-1" x2="12.2866" y2="-1" transform="matrix(-0.939835 -0.341627 0.342413 -0.939549 293.129 138.285)" stroke="#9E77ED" stroke-width="2"/>
<line y1="-1" x2="12.2744" y2="-1" transform="matrix(0.342413 -0.939549 0.939835 0.341627 7.89648 163.213)" stroke="#9E77ED" stroke-width="2"/>
<line y1="-1" x2="12.2765" y2="-1" transform="matrix(0.500488 -0.865743 0.866307 0.499512 34.0879 162.83)" stroke="#9E77ED" stroke-width="2"/>
<line y1="-1" x2="12.2791" y2="-1" transform="matrix(0.643278 -0.765632 0.766456 0.642297 60.4199 162.445)" stroke="#9E77ED" stroke-width="2"/>
<line y1="-1" x2="12.2819" y2="-1" transform="matrix(0.766456 -0.642297 0.643278 0.765632 86.9336 161.679)" stroke="#9E77ED" stroke-width="2"/>
<line y1="-1" x2="12.2845" y2="-1" transform="matrix(0.866307 -0.499512 0.500488 0.865743 113.664 160.528)" stroke="#9E77ED" stroke-width="2"/>
<line y1="-1" x2="12.2866" y2="-1" transform="matrix(0.939835 -0.341627 0.342413 0.939549 140.633 159.761)" stroke="#9E77ED" stroke-width="2"/>
<line y1="-1" x2="12.288" y2="-1" transform="matrix(0.984846 -0.173429 0.173867 0.984769 167.869 158.611)" stroke="#9E77ED" stroke-width="2"/>
<line y1="-1" x2="12.2845" y2="-1" transform="matrix(-0.866307 -0.499512 0.500488 -0.865743 292.451 160.528)" stroke="#9E77ED" stroke-width="2"/>
<line x1="210.738" y1="158.46" x2="198.45" y2="158.46" stroke="#9E77ED" stroke-width="2"/>
<line y1="-1" x2="12.288" y2="-1" transform="matrix(-0.984846 -0.173429 0.173867 -0.984769 238.246 158.611)" stroke="#9E77ED" stroke-width="2"/>
<line y1="-1" x2="12.2866" y2="-1" transform="matrix(-0.939835 -0.341627 0.342413 -0.939549 265.479 159.761)" stroke="#9E77ED" stroke-width="2"/>
<line y1="-1" x2="12.2765" y2="-1" transform="matrix(0.500488 -0.865743 0.866307 0.499512 6.43945 184.307)" stroke="#9E77ED" stroke-width="2"/>
<line y1="-1" x2="12.2791" y2="-1" transform="matrix(0.643278 -0.765632 0.766456 0.642297 32.7734 183.923)" stroke="#9E77ED" stroke-width="2"/>
<line y1="-1" x2="12.2819" y2="-1" transform="matrix(0.766456 -0.642297 0.643278 0.765632 59.2871 183.156)" stroke="#9E77ED" stroke-width="2"/>
<line y1="-1" x2="12.2845" y2="-1" transform="matrix(0.866307 -0.499512 0.500488 0.865743 86.0137 182.005)" stroke="#9E77ED" stroke-width="2"/>
<line y1="-1" x2="12.2866" y2="-1" transform="matrix(0.939835 -0.341627 0.342413 0.939549 112.982 181.238)" stroke="#9E77ED" stroke-width="2"/>
<line y1="-1" x2="12.288" y2="-1" transform="matrix(0.984846 -0.173429 0.173867 0.984769 140.217 180.087)" stroke="#9E77ED" stroke-width="2"/>
<line y1="-1" x2="12.2845" y2="-1" transform="matrix(-0.866307 -0.499512 0.500488 -0.865743 264.799 182.005)" stroke="#9E77ED" stroke-width="2"/>
<line y1="-1" x2="12.2819" y2="-1" transform="matrix(-0.766456 -0.642297 0.643278 -0.765632 291.529 183.156)" stroke="#9E77ED" stroke-width="2"/>
<line x1="183.088" y1="179.937" x2="170.799" y2="179.937" stroke="#9E77ED" stroke-width="2"/>
<line y1="-1" x2="12.288" y2="-1" transform="matrix(-0.984846 -0.173429 0.173867 -0.984769 210.596 180.087)" stroke="#9E77ED" stroke-width="2"/>
<line y1="-1" x2="12.2866" y2="-1" transform="matrix(-0.939835 -0.341627 0.342413 -0.939549 237.83 181.238)" stroke="#9E77ED" stroke-width="2"/>
<line y1="-1" x2="12.2791" y2="-1" transform="matrix(0.643278 -0.765632 0.766456 0.642297 5.12109 205.4)" stroke="#9E77ED" stroke-width="2"/>
<line y1="-1" x2="12.2819" y2="-1" transform="matrix(0.766456 -0.642297 0.643278 0.765632 31.6367 204.632)" stroke="#9E77ED" stroke-width="2"/>
<line y1="-1" x2="12.2845" y2="-1" transform="matrix(0.866307 -0.499512 0.500488 0.865743 58.3652 203.482)" stroke="#9E77ED" stroke-width="2"/>
<line y1="-1" x2="12.2866" y2="-1" transform="matrix(0.939835 -0.341627 0.342413 0.939549 85.3359 202.716)" stroke="#9E77ED" stroke-width="2"/>
<line y1="-1" x2="12.288" y2="-1" transform="matrix(0.984846 -0.173429 0.173867 0.984769 112.57 201.565)" stroke="#9E77ED" stroke-width="2"/>
<line y1="-1" x2="12.2845" y2="-1" transform="matrix(-0.866307 -0.499512 0.500488 -0.865743 237.152 203.482)" stroke="#9E77ED" stroke-width="2"/>
<line y1="-1" x2="12.2819" y2="-1" transform="matrix(-0.766456 -0.642297 0.643278 -0.765632 263.879 204.632)" stroke="#9E77ED" stroke-width="2"/>
<line y1="-1" x2="12.2791" y2="-1" transform="matrix(-0.643278 -0.765632 0.766456 -0.642297 290.393 205.4)" stroke="#9E77ED" stroke-width="2"/>
<line x1="155.439" y1="201.414" x2="143.151" y2="201.414" stroke="#9E77ED" stroke-width="2"/>
<line y1="-1" x2="12.288" y2="-1" transform="matrix(-0.984846 -0.173429 0.173867 -0.984769 182.949 201.565)" stroke="#9E77ED" stroke-width="2"/>
<line y1="-1" x2="12.2866" y2="-1" transform="matrix(-0.939835 -0.341627 0.342413 -0.939549 210.184 202.716)" stroke="#9E77ED" stroke-width="2"/>
<line y1="-1" x2="12.2819" y2="-1" transform="matrix(0.766456 -0.642297 0.643278 0.765632 3.98828 226.109)" stroke="#9E77ED" stroke-width="2"/>
<line y1="-1" x2="12.2845" y2="-1" transform="matrix(0.866307 -0.499512 0.500488 0.865743 30.7148 224.959)" stroke="#9E77ED" stroke-width="2"/>
<line y1="-1" x2="12.2866" y2="-1" transform="matrix(0.939835 -0.341627 0.342413 0.939549 57.6836 224.192)" stroke="#9E77ED" stroke-width="2"/>
<line y1="-1" x2="12.288" y2="-1" transform="matrix(0.984846 -0.173429 0.173867 0.984769 84.918 223.041)" stroke="#9E77ED" stroke-width="2"/>
<line y1="-1" x2="12.2845" y2="-1" transform="matrix(-0.866307 -0.499512 0.500488 -0.865743 209.502 224.959)" stroke="#9E77ED" stroke-width="2"/>
<line y1="-1" x2="12.2819" y2="-1" transform="matrix(-0.766456 -0.642297 0.643278 -0.765632 236.23 226.109)" stroke="#9E77ED" stroke-width="2"/>
<line y1="-1" x2="12.2791" y2="-1" transform="matrix(-0.643278 -0.765632 0.766456 -0.642297 262.742 226.876)" stroke="#9E77ED" stroke-width="2"/>
<line y1="-1" x2="12.2765" y2="-1" transform="matrix(-0.500488 -0.865743 0.866307 -0.499512 289.078 227.26)" stroke="#9E77ED" stroke-width="2"/>
<line x1="127.789" y1="222.891" x2="115.501" y2="222.891" stroke="#9E77ED" stroke-width="2"/>
<line y1="-1" x2="12.288" y2="-1" transform="matrix(-0.984846 -0.173429 0.173867 -0.984769 155.297 223.041)" stroke="#9E77ED" stroke-width="2"/>
<line y1="-1" x2="12.2866" y2="-1" transform="matrix(-0.939835 -0.341627 0.342413 -0.939549 182.531 224.192)" stroke="#9E77ED" stroke-width="2"/>
<line y1="-1" x2="12.2845" y2="-1" transform="matrix(0.866307 -0.499512 0.500488 0.865743 3.06836 246.436)" stroke="#9E77ED" stroke-width="2"/>
<line y1="-1" x2="12.2866" y2="-1" transform="matrix(0.939835 -0.341627 0.342413 0.939549 30.0371 245.669)" stroke="#9E77ED" stroke-width="2"/>
<line y1="-1" x2="12.288" y2="-1" transform="matrix(0.984846 -0.173429 0.173867 0.984769 57.2715 244.519)" stroke="#9E77ED" stroke-width="2"/>
<line y1="-1" x2="12.2845" y2="-1" transform="matrix(-0.866307 -0.499512 0.500488 -0.865743 181.854 246.436)" stroke="#9E77ED" stroke-width="2"/>
<line y1="-1" x2="12.2819" y2="-1" transform="matrix(-0.766456 -0.642297 0.643278 -0.765632 208.58 247.587)" stroke="#9E77ED" stroke-width="2"/>
<line y1="-1" x2="12.2791" y2="-1" transform="matrix(-0.643278 -0.765632 0.766456 -0.642297 235.094 248.354)" stroke="#9E77ED" stroke-width="2"/>
<line y1="-1" x2="12.2765" y2="-1" transform="matrix(-0.500488 -0.865743 0.866307 -0.499512 261.428 248.737)" stroke="#9E77ED" stroke-width="2"/>
<line y1="-1" x2="12.2744" y2="-1" transform="matrix(-0.342413 -0.939549 0.939835 -0.341627 287.621 249.121)" stroke="#9E77ED" stroke-width="2"/>
<line x1="100.141" y1="244.368" x2="87.8521" y2="244.368" stroke="#9E77ED" stroke-width="2"/>
<line y1="-1" x2="12.288" y2="-1" transform="matrix(-0.984846 -0.173429 0.173867 -0.984769 127.65 244.519)" stroke="#9E77ED" stroke-width="2"/>
<line y1="-1" x2="12.2866" y2="-1" transform="matrix(-0.939835 -0.341627 0.342413 -0.939549 154.885 245.669)" stroke="#9E77ED" stroke-width="2"/>
<line y1="-1" x2="12.2866" y2="-1" transform="matrix(0.939835 -0.341627 0.342413 0.939549 2.38477 267.146)" stroke="#9E77ED" stroke-width="2"/>
<line y1="-1" x2="12.288" y2="-1" transform="matrix(0.984846 -0.173429 0.173867 0.984769 29.6211 265.996)" stroke="#9E77ED" stroke-width="2"/>
<line y1="-1" x2="12.2845" y2="-1" transform="matrix(-0.866307 -0.499512 0.500488 -0.865743 154.203 267.914)" stroke="#9E77ED" stroke-width="2"/>
<line y1="-1" x2="12.2819" y2="-1" transform="matrix(-0.766456 -0.642297 0.643278 -0.765632 180.934 269.063)" stroke="#9E77ED" stroke-width="2"/>
<line y1="-1" x2="12.2791" y2="-1" transform="matrix(-0.643278 -0.765632 0.766456 -0.642297 207.447 269.83)" stroke="#9E77ED" stroke-width="2"/>
<line y1="-1" x2="12.2765" y2="-1" transform="matrix(-0.500488 -0.865743 0.866307 -0.499512 233.779 270.214)" stroke="#9E77ED" stroke-width="2"/>
<line y1="-1" x2="12.2744" y2="-1" transform="matrix(-0.342413 -0.939549 0.939835 -0.341627 259.971 270.598)" stroke="#9E77ED" stroke-width="2"/>
<line y1="-1" x2="12.273" y2="-1" transform="matrix(-0.173867 -0.984769 0.984846 -0.173429 286.068 270.981)" stroke="#9E77ED" stroke-width="2"/>
<line x1="72.4902" y1="265.845" x2="60.2017" y2="265.845" stroke="#9E77ED" stroke-width="2"/>
<line y1="-1" x2="12.288" y2="-1" transform="matrix(-0.984846 -0.173429 0.173867 -0.984769 99.998 265.996)" stroke="#9E77ED" stroke-width="2"/>
<line y1="-1" x2="12.2866" y2="-1" transform="matrix(-0.939835 -0.341627 0.342413 -0.939549 127.234 267.146)" stroke="#9E77ED" stroke-width="2"/>
<line y1="-1" x2="12.288" y2="-1" transform="matrix(0.984846 -0.173429 0.173867 0.984769 1.97266 287.472)" stroke="#9E77ED" stroke-width="2"/>
<line y1="-1" x2="12.2845" y2="-1" transform="matrix(-0.866307 -0.499512 0.500488 -0.865743 126.555 289.39)" stroke="#9E77ED" stroke-width="2"/>
<line y1="-1" x2="12.2819" y2="-1" transform="matrix(-0.766456 -0.642297 0.643278 -0.765632 153.281 290.541)" stroke="#9E77ED" stroke-width="2"/>
<line y1="-1" x2="12.2791" y2="-1" transform="matrix(-0.643278 -0.765632 0.766456 -0.642297 179.797 291.308)" stroke="#9E77ED" stroke-width="2"/>
<line y1="-1" x2="12.2765" y2="-1" transform="matrix(-0.500488 -0.865743 0.866307 -0.499512 206.129 291.691)" stroke="#9E77ED" stroke-width="2"/>
<line y1="-1" x2="12.2744" y2="-1" transform="matrix(-0.342413 -0.939549 0.939835 -0.341627 232.324 292.074)" stroke="#9E77ED" stroke-width="2"/>
<line y1="-1" x2="12.273" y2="-1" transform="matrix(-0.173867 -0.984769 0.984846 -0.173429 258.422 292.458)" stroke="#9E77ED" stroke-width="2"/>
<line x1="283.469" y1="292.458" x2="283.469" y2="280.185" stroke="#9E77ED" stroke-width="2"/>
<line x1="44.8438" y1="287.321" x2="32.5552" y2="287.321" stroke="#9E77ED" stroke-width="2"/>
<line y1="-1" x2="12.288" y2="-1" transform="matrix(-0.984846 -0.173429 0.173867 -0.984769 72.3516 287.472)" stroke="#9E77ED" stroke-width="2"/>
<line y1="-1" x2="12.2866" y2="-1" transform="matrix(-0.939835 -0.341627 0.342413 -0.939549 99.5859 288.623)" stroke="#9E77ED" stroke-width="2"/>
<line y1="-1" x2="12.2845" y2="-1" transform="matrix(-0.866307 -0.499512 0.500488 -0.865743 98.9043 310.867)" stroke="#9E77ED" stroke-width="2"/>
<line y1="-1" x2="12.2819" y2="-1" transform="matrix(-0.766456 -0.642297 0.643278 -0.765632 125.635 312.017)" stroke="#9E77ED" stroke-width="2"/>
<line y1="-1" x2="12.2791" y2="-1" transform="matrix(-0.643278 -0.765632 0.766456 -0.642297 152.148 312.785)" stroke="#9E77ED" stroke-width="2"/>
<line y1="-1" x2="12.2765" y2="-1" transform="matrix(-0.500488 -0.865743 0.866307 -0.499512 178.482 313.167)" stroke="#9E77ED" stroke-width="2"/>
<line y1="-1" x2="12.2744" y2="-1" transform="matrix(-0.342413 -0.939549 0.939835 -0.341627 204.672 313.552)" stroke="#9E77ED" stroke-width="2"/>
<line y1="-1" x2="12.273" y2="-1" transform="matrix(-0.173867 -0.984769 0.984846 -0.173429 230.77 313.935)" stroke="#9E77ED" stroke-width="2"/>
<line x1="255.818" y1="313.935" x2="255.818" y2="301.662" stroke="#9E77ED" stroke-width="2"/>
<line y1="-1" x2="12.273" y2="-1" transform="matrix(0.173867 -0.984769 0.984846 0.173429 282.871 313.935)" stroke="#9E77ED" stroke-width="2"/>
<line x1="17.1914" y1="308.799" x2="4.9029" y2="308.799" stroke="#9E77ED" stroke-width="2"/>
<line y1="-1" x2="12.288" y2="-1" transform="matrix(-0.984846 -0.173429 0.173867 -0.984769 44.7012 308.949)" stroke="#9E77ED" stroke-width="2"/>
<line y1="-1" x2="12.2866" y2="-1" transform="matrix(-0.939835 -0.341627 0.342413 -0.939549 71.9355 310.1)" stroke="#9E77ED" stroke-width="2"/>
<line y1="-1" x2="12.2744" y2="-1" transform="matrix(0.342413 -0.939549 0.939835 0.341627 281.316 335.028)" stroke="#9E77ED" stroke-width="2"/>
<line y1="-1" x2="12.2845" y2="-1" transform="matrix(-0.866307 -0.499512 0.500488 -0.865743 71.2578 332.343)" stroke="#9E77ED" stroke-width="2"/>
<line y1="-1" x2="12.2819" y2="-1" transform="matrix(-0.766456 -0.642297 0.643278 -0.765632 97.9824 333.494)" stroke="#9E77ED" stroke-width="2"/>
<line y1="-1" x2="12.2791" y2="-1" transform="matrix(-0.643278 -0.765632 0.766456 -0.642297 124.498 334.261)" stroke="#9E77ED" stroke-width="2"/>
<line y1="-1" x2="12.2765" y2="-1" transform="matrix(-0.500488 -0.865743 0.866307 -0.499512 150.83 334.645)" stroke="#9E77ED" stroke-width="2"/>
<line y1="-1" x2="12.2744" y2="-1" transform="matrix(-0.342413 -0.939549 0.939835 -0.341627 177.025 335.028)" stroke="#9E77ED" stroke-width="2"/>
<line y1="-1" x2="12.273" y2="-1" transform="matrix(-0.173867 -0.984769 0.984846 -0.173429 203.123 335.412)" stroke="#9E77ED" stroke-width="2"/>
<line x1="228.172" y1="335.412" x2="228.172" y2="323.139" stroke="#9E77ED" stroke-width="2"/>
<line y1="-1" x2="12.273" y2="-1" transform="matrix(0.173867 -0.984769 0.984846 0.173429 255.219 335.412)" stroke="#9E77ED" stroke-width="2"/>
<line y1="-1" x2="12.288" y2="-1" transform="matrix(-0.984846 -0.173429 0.173867 -0.984769 17.0527 330.426)" stroke="#9E77ED" stroke-width="2"/>
<line y1="-1" x2="12.2866" y2="-1" transform="matrix(-0.939835 -0.341627 0.342413 -0.939549 44.2871 331.577)" stroke="#9E77ED" stroke-width="2"/>
<line y1="-1" x2="12.2744" y2="-1" transform="matrix(0.342413 -0.939549 0.939835 0.341627 253.67 356.505)" stroke="#9E77ED" stroke-width="2"/>
<line y1="-1" x2="12.2765" y2="-1" transform="matrix(0.500488 -0.865743 0.866307 0.499512 279.859 356.121)" stroke="#9E77ED" stroke-width="2"/>
<line y1="-1" x2="12.2845" y2="-1" transform="matrix(-0.866307 -0.499512 0.500488 -0.865743 43.6055 353.821)" stroke="#9E77ED" stroke-width="2"/>
<line y1="-1" x2="12.2819" y2="-1" transform="matrix(-0.766456 -0.642297 0.643278 -0.765632 70.3359 354.972)" stroke="#9E77ED" stroke-width="2"/>
<line y1="-1" x2="12.2791" y2="-1" transform="matrix(-0.643278 -0.765632 0.766456 -0.642297 96.8496 355.738)" stroke="#9E77ED" stroke-width="2"/>
<line y1="-1" x2="12.2765" y2="-1" transform="matrix(-0.500488 -0.865743 0.866307 -0.499512 123.184 356.121)" stroke="#9E77ED" stroke-width="2"/>
<line y1="-1" x2="12.2744" y2="-1" transform="matrix(-0.342413 -0.939549 0.939835 -0.341627 149.373 356.505)" stroke="#9E77ED" stroke-width="2"/>
<line y1="-1" x2="12.273" y2="-1" transform="matrix(-0.173867 -0.984769 0.984846 -0.173429 175.473 356.889)" stroke="#9E77ED" stroke-width="2"/>
<line x1="200.52" y1="356.889" x2="200.52" y2="344.617" stroke="#9E77ED" stroke-width="2"/>
<line y1="-1" x2="12.273" y2="-1" transform="matrix(0.173867 -0.984769 0.984846 0.173429 227.572 356.889)" stroke="#9E77ED" stroke-width="2"/>
<line y1="-1" x2="12.2866" y2="-1" transform="matrix(-0.939835 -0.341627 0.342413 -0.939549 16.6367 353.054)" stroke="#9E77ED" stroke-width="2"/>
<line y1="-1" x2="12.2744" y2="-1" transform="matrix(0.342413 -0.939549 0.939835 0.341627 226.02 377.982)" stroke="#9E77ED" stroke-width="2"/>
<line y1="-1" x2="12.2765" y2="-1" transform="matrix(0.500488 -0.865743 0.866307 0.499512 252.213 377.599)" stroke="#9E77ED" stroke-width="2"/>
<line y1="-1" x2="12.2791" y2="-1" transform="matrix(0.643278 -0.765632 0.766456 0.642297 278.547 377.215)" stroke="#9E77ED" stroke-width="2"/>
<line y1="-1" x2="12.2845" y2="-1" transform="matrix(-0.866307 -0.499512 0.500488 -0.865743 15.959 375.298)" stroke="#9E77ED" stroke-width="2"/>
<line y1="-1" x2="12.2819" y2="-1" transform="matrix(-0.766456 -0.642297 0.643278 -0.765632 42.6855 376.448)" stroke="#9E77ED" stroke-width="2"/>
<line y1="-1" x2="12.2791" y2="-1" transform="matrix(-0.643278 -0.765632 0.766456 -0.642297 69.1992 377.215)" stroke="#9E77ED" stroke-width="2"/>
<line y1="-1" x2="12.2765" y2="-1" transform="matrix(-0.500488 -0.865743 0.866307 -0.499512 95.5332 377.599)" stroke="#9E77ED" stroke-width="2"/>
<line y1="-1" x2="12.2744" y2="-1" transform="matrix(-0.342413 -0.939549 0.939835 -0.341627 121.727 377.982)" stroke="#9E77ED" stroke-width="2"/>
<line y1="-1" x2="12.273" y2="-1" transform="matrix(-0.173867 -0.984769 0.984846 -0.173429 147.824 378.365)" stroke="#9E77ED" stroke-width="2"/>
<line x1="172.873" y1="378.365" x2="172.873" y2="366.093" stroke="#9E77ED" stroke-width="2"/>
<line y1="-1" x2="12.273" y2="-1" transform="matrix(0.173867 -0.984769 0.984846 0.173429 199.92 378.365)" stroke="#9E77ED" stroke-width="2"/>
<line y1="-1" x2="12.2744" y2="-1" transform="matrix(0.342413 -0.939549 0.939835 0.341627 198.371 399.459)" stroke="#9E77ED" stroke-width="2"/>
<line y1="-1" x2="12.2765" y2="-1" transform="matrix(0.500488 -0.865743 0.866307 0.499512 224.562 399.076)" stroke="#9E77ED" stroke-width="2"/>
<line y1="-1" x2="12.2791" y2="-1" transform="matrix(0.643278 -0.765632 0.766456 0.642297 250.895 398.692)" stroke="#9E77ED" stroke-width="2"/>
<line y1="-1" x2="12.2819" y2="-1" transform="matrix(0.766456 -0.642297 0.643278 0.765632 277.41 397.925)" stroke="#9E77ED" stroke-width="2"/>
<line y1="-1" x2="12.2819" y2="-1" transform="matrix(-0.766456 -0.642297 0.643278 -0.765632 15.0371 397.925)" stroke="#9E77ED" stroke-width="2"/>
<line y1="-1" x2="12.2791" y2="-1" transform="matrix(-0.643278 -0.765632 0.766456 -0.642297 41.5527 398.692)" stroke="#9E77ED" stroke-width="2"/>
<line y1="-1" x2="12.2765" y2="-1" transform="matrix(-0.500488 -0.865743 0.866307 -0.499512 67.8848 399.076)" stroke="#9E77ED" stroke-width="2"/>
<line y1="-1" x2="12.2744" y2="-1" transform="matrix(-0.342413 -0.939549 0.939835 -0.341627 94.0762 399.459)" stroke="#9E77ED" stroke-width="2"/>
<line y1="-1" x2="12.273" y2="-1" transform="matrix(-0.173867 -0.984769 0.984846 -0.173429 120.174 399.843)" stroke="#9E77ED" stroke-width="2"/>
<line x1="145.221" y1="399.843" x2="145.221" y2="387.57" stroke="#9E77ED" stroke-width="2"/>
<line y1="-1" x2="12.273" y2="-1" transform="matrix(0.173867 -0.984769 0.984846 0.173429 172.273 399.843)" stroke="#9E77ED" stroke-width="2"/>
</g>
</svg>
